<svg width="305" height="60" viewBox="0 0 305 60" fill="none" xmlns="http://www.w3.org/2000/svg">
<g clip-path="url(#clip0_1_15)">
<rect width="305" height="60" rx="10" fill="#9F3919"/>
<path d="M113.313 36.204C112.191 36.204 111.21 35.949 110.372 35.439C109.533 34.929 108.881 34.2207 108.417 33.314C107.952 32.396 107.72 31.3307 107.72 30.118C107.72 28.894 107.958 27.8173 108.434 26.888C108.921 25.9473 109.607 25.2163 110.491 24.695C111.386 24.1623 112.446 23.896 113.67 23.896C115.064 23.896 116.22 24.2303 117.138 24.899C118.056 25.5677 118.651 26.4913 118.923 27.67H116.492C116.31 27.1147 115.982 26.684 115.506 26.378C115.03 26.0607 114.418 25.902 113.67 25.902C112.48 25.902 111.562 26.2817 110.916 27.041C110.27 27.789 109.947 28.8203 109.947 30.135C109.947 31.4497 110.264 32.4697 110.899 33.195C111.545 33.909 112.417 34.266 113.517 34.266C114.593 34.266 115.404 33.977 115.948 33.399C116.503 32.8097 116.837 32.039 116.951 31.087H113.942V29.455H119.144V36H117.138L116.968 34.436C116.582 35.0027 116.101 35.439 115.523 35.745C114.945 36.051 114.208 36.204 113.313 36.204ZM124.774 36.204C123.924 36.204 123.17 36.0227 122.513 35.66C121.855 35.2973 121.34 34.7873 120.966 34.13C120.592 33.4727 120.405 32.7133 120.405 31.852C120.405 30.9793 120.586 30.203 120.949 29.523C121.323 28.843 121.833 28.316 122.479 27.942C123.136 27.5567 123.907 27.364 124.791 27.364C125.618 27.364 126.349 27.5453 126.984 27.908C127.618 28.2707 128.111 28.7693 128.463 29.404C128.825 30.0273 129.007 30.7243 129.007 31.495C129.007 31.6197 129.001 31.75 128.99 31.886C128.99 32.022 128.984 32.1637 128.973 32.311H122.564C122.609 32.9683 122.836 33.484 123.244 33.858C123.663 34.232 124.167 34.419 124.757 34.419C125.199 34.419 125.567 34.3227 125.862 34.13C126.168 33.926 126.394 33.6653 126.542 33.348H128.752C128.593 33.8807 128.327 34.368 127.953 34.81C127.59 35.2407 127.137 35.5807 126.593 35.83C126.06 36.0793 125.454 36.204 124.774 36.204ZM124.791 29.132C124.258 29.132 123.788 29.285 123.38 29.591C122.972 29.8857 122.711 30.339 122.598 30.951H126.797C126.763 30.3957 126.559 29.9537 126.185 29.625C125.811 29.2963 125.346 29.132 124.791 29.132ZM133.913 36C133.029 36 132.321 35.7847 131.788 35.354C131.255 34.9233 130.989 34.1583 130.989 33.059V29.387H129.544V27.568H130.989L131.244 25.307H133.165V27.568H135.443V29.387H133.165V33.076C133.165 33.484 133.25 33.7673 133.42 33.926C133.601 34.0733 133.907 34.147 134.338 34.147H135.392V36H133.913ZM144.413 36.204C143.54 36.204 142.77 36.0567 142.101 35.762C141.432 35.456 140.905 35.0253 140.52 34.47C140.135 33.9033 139.936 33.2177 139.925 32.413H142.22C142.243 32.9683 142.441 33.4387 142.815 33.824C143.2 34.198 143.727 34.385 144.396 34.385C144.974 34.385 145.433 34.249 145.773 33.977C146.113 33.6937 146.283 33.3197 146.283 32.855C146.283 32.3677 146.13 31.988 145.824 31.716C145.529 31.444 145.133 31.223 144.634 31.053C144.135 30.883 143.603 30.7017 143.036 30.509C142.118 30.1917 141.415 29.7837 140.928 29.285C140.452 28.7863 140.214 28.1233 140.214 27.296C140.203 26.5933 140.367 25.9927 140.707 25.494C141.058 24.984 141.534 24.593 142.135 24.321C142.736 24.0377 143.427 23.896 144.209 23.896C145.002 23.896 145.699 24.0377 146.3 24.321C146.912 24.6043 147.388 25.001 147.728 25.511C148.079 26.021 148.266 26.6273 148.289 27.33H145.96C145.949 26.9107 145.784 26.5423 145.467 26.225C145.161 25.8963 144.73 25.732 144.175 25.732C143.699 25.7207 143.297 25.8397 142.968 26.089C142.651 26.327 142.492 26.6783 142.492 27.143C142.492 27.5397 142.617 27.857 142.866 28.095C143.115 28.3217 143.455 28.5143 143.886 28.673C144.317 28.8317 144.81 29.0017 145.365 29.183C145.954 29.387 146.493 29.625 146.98 29.897C147.467 30.169 147.858 30.5317 148.153 30.985C148.448 31.427 148.595 31.9993 148.595 32.702C148.595 33.3253 148.436 33.9033 148.119 34.436C147.802 34.9687 147.331 35.3993 146.708 35.728C146.085 36.0453 145.32 36.204 144.413 36.204ZM153.668 36C152.784 36 152.076 35.7847 151.543 35.354C151.01 34.9233 150.744 34.1583 150.744 33.059V29.387H149.299V27.568H150.744L150.999 25.307H152.92V27.568H155.198V29.387H152.92V33.076C152.92 33.484 153.005 33.7673 153.175 33.926C153.356 34.0733 153.662 34.147 154.093 34.147H155.147V36H153.668ZM159.442 36.204C158.717 36.204 158.122 36.0907 157.657 35.864C157.192 35.626 156.847 35.3143 156.62 34.929C156.393 34.5437 156.28 34.1187 156.28 33.654C156.28 32.872 156.586 32.2373 157.198 31.75C157.81 31.2627 158.728 31.019 159.952 31.019H162.094V30.815C162.094 30.237 161.93 29.812 161.601 29.54C161.272 29.268 160.864 29.132 160.377 29.132C159.935 29.132 159.55 29.2397 159.221 29.455C158.892 29.659 158.688 29.965 158.609 30.373H156.484C156.541 29.761 156.745 29.2283 157.096 28.775C157.459 28.3217 157.923 27.976 158.49 27.738C159.057 27.4887 159.691 27.364 160.394 27.364C161.595 27.364 162.542 27.6643 163.233 28.265C163.924 28.8657 164.27 29.7157 164.27 30.815V36H162.417L162.213 34.64C161.964 35.0933 161.612 35.4673 161.159 35.762C160.717 36.0567 160.145 36.204 159.442 36.204ZM159.935 34.504C160.558 34.504 161.04 34.3 161.38 33.892C161.731 33.484 161.952 32.9797 162.043 32.379H160.19C159.612 32.379 159.198 32.4867 158.949 32.702C158.7 32.906 158.575 33.161 158.575 33.467C158.575 33.7957 158.7 34.0507 158.949 34.232C159.198 34.4133 159.527 34.504 159.935 34.504ZM165.815 36V27.568H167.753L167.957 29.149C168.263 28.605 168.677 28.1743 169.198 27.857C169.731 27.5283 170.354 27.364 171.068 27.364V29.659H170.456C169.98 29.659 169.555 29.7327 169.181 29.88C168.807 30.0273 168.512 30.2823 168.297 30.645C168.093 31.0077 167.991 31.512 167.991 32.158V36H165.815ZM175.781 36C174.897 36 174.188 35.7847 173.656 35.354C173.123 34.9233 172.857 34.1583 172.857 33.059V29.387H171.412V27.568H172.857L173.112 25.307H175.033V27.568H177.311V29.387H175.033V33.076C175.033 33.484 175.118 33.7673 175.288 33.926C175.469 34.0733 175.775 34.147 176.206 34.147H177.26V36H175.781ZM182.529 36.204C181.679 36.204 180.925 36.0227 180.268 35.66C179.61 35.2973 179.095 34.7873 178.721 34.13C178.347 33.4727 178.16 32.7133 178.16 31.852C178.16 30.9793 178.341 30.203 178.704 29.523C179.078 28.843 179.588 28.316 180.234 27.942C180.891 27.5567 181.662 27.364 182.546 27.364C183.373 27.364 184.104 27.5453 184.739 27.908C185.373 28.2707 185.866 28.7693 186.218 29.404C186.58 30.0273 186.762 30.7243 186.762 31.495C186.762 31.6197 186.756 31.75 186.745 31.886C186.745 32.022 186.739 32.1637 186.728 32.311H180.319C180.364 32.9683 180.591 33.484 180.999 33.858C181.418 34.232 181.922 34.419 182.512 34.419C182.954 34.419 183.322 34.3227 183.617 34.13C183.923 33.926 184.149 33.6653 184.297 33.348H186.507C186.348 33.8807 186.082 34.368 185.708 34.81C185.345 35.2407 184.892 35.5807 184.348 35.83C183.815 36.0793 183.209 36.204 182.529 36.204ZM182.546 29.132C182.013 29.132 181.543 29.285 181.135 29.591C180.727 29.8857 180.466 30.339 180.353 30.951H184.552C184.518 30.3957 184.314 29.9537 183.94 29.625C183.566 29.2963 183.101 29.132 182.546 29.132ZM191.936 36.204C191.143 36.204 190.435 36.0113 189.811 35.626C189.188 35.2407 188.695 34.7137 188.332 34.045C187.97 33.3763 187.788 32.617 187.788 31.767C187.788 30.917 187.97 30.1633 188.332 29.506C188.695 28.8373 189.188 28.316 189.811 27.942C190.435 27.5567 191.143 27.364 191.936 27.364C192.571 27.364 193.126 27.483 193.602 27.721C194.078 27.959 194.464 28.2933 194.758 28.724V23.76H196.934V36H194.996L194.758 34.793C194.486 35.167 194.124 35.4957 193.67 35.779C193.228 36.0623 192.65 36.204 191.936 36.204ZM192.395 34.3C193.098 34.3 193.67 34.0677 194.112 33.603C194.566 33.127 194.792 32.5207 194.792 31.784C194.792 31.0473 194.566 30.4467 194.112 29.982C193.67 29.506 193.098 29.268 192.395 29.268C191.704 29.268 191.132 29.5003 190.678 29.965C190.225 30.4297 189.998 31.0303 189.998 31.767C189.998 32.5037 190.225 33.11 190.678 33.586C191.132 34.062 191.704 34.3 192.395 34.3Z" fill="white"/>
</g>
<defs>
<clipPath id="clip0_1_15">
<rect width="305" height="60" fill="white"/>
</clipPath>
</defs>
</svg>
