<svg width="285" height="60" viewBox="0 0 285 60" fill="none" xmlns="http://www.w3.org/2000/svg">
<g clip-path="url(#clip0_1_6)">
<rect width="285" height="60" rx="10" fill="white" stroke="#EAE9F2"/>
<path d="M103.313 36.204C102.191 36.204 101.21 35.949 100.372 35.439C99.5331 34.929 98.8814 34.2207 98.4167 33.314C97.9521 32.396 97.7197 31.3307 97.7197 30.118C97.7197 28.894 97.9577 27.8173 98.4337 26.888C98.9211 25.9473 99.6067 25.2163 100.491 24.695C101.386 24.1623 102.446 23.896 103.67 23.896C105.064 23.896 106.22 24.2303 107.138 24.899C108.056 25.5677 108.651 26.4913 108.923 27.67H106.492C106.31 27.1147 105.982 26.684 105.506 26.378C105.03 26.0607 104.418 25.902 103.67 25.902C102.48 25.902 101.562 26.2817 100.916 27.041C100.27 27.789 99.9467 28.8203 99.9467 30.135C99.9467 31.4497 100.264 32.4697 100.899 33.195C101.545 33.909 102.417 34.266 103.517 34.266C104.593 34.266 105.404 33.977 105.948 33.399C106.503 32.8097 106.837 32.039 106.951 31.087H103.942V29.455H109.144V36H107.138L106.968 34.436C106.582 35.0027 106.101 35.439 105.523 35.745C104.945 36.051 104.208 36.204 103.313 36.204ZM114.774 36.204C113.924 36.204 113.17 36.0227 112.513 35.66C111.855 35.2973 111.34 34.7873 110.966 34.13C110.592 33.4727 110.405 32.7133 110.405 31.852C110.405 30.9793 110.586 30.203 110.949 29.523C111.323 28.843 111.833 28.316 112.479 27.942C113.136 27.5567 113.907 27.364 114.791 27.364C115.618 27.364 116.349 27.5453 116.984 27.908C117.618 28.2707 118.111 28.7693 118.463 29.404C118.825 30.0273 119.007 30.7243 119.007 31.495C119.007 31.6197 119.001 31.75 118.99 31.886C118.99 32.022 118.984 32.1637 118.973 32.311H112.564C112.609 32.9683 112.836 33.484 113.244 33.858C113.663 34.232 114.167 34.419 114.757 34.419C115.199 34.419 115.567 34.3227 115.862 34.13C116.168 33.926 116.394 33.6653 116.542 33.348H118.752C118.593 33.8807 118.327 34.368 117.953 34.81C117.59 35.2407 117.137 35.5807 116.593 35.83C116.06 36.0793 115.454 36.204 114.774 36.204ZM114.791 29.132C114.258 29.132 113.788 29.285 113.38 29.591C112.972 29.8857 112.711 30.339 112.598 30.951H116.797C116.763 30.3957 116.559 29.9537 116.185 29.625C115.811 29.2963 115.346 29.132 114.791 29.132ZM123.913 36C123.029 36 122.321 35.7847 121.788 35.354C121.255 34.9233 120.989 34.1583 120.989 33.059V29.387H119.544V27.568H120.989L121.244 25.307H123.165V27.568H125.443V29.387H123.165V33.076C123.165 33.484 123.25 33.7673 123.42 33.926C123.601 34.0733 123.907 34.147 124.338 34.147H125.392V36H123.913ZM134.413 36.204C133.54 36.204 132.77 36.0567 132.101 35.762C131.432 35.456 130.905 35.0253 130.52 34.47C130.135 33.9033 129.936 33.2177 129.925 32.413H132.22C132.243 32.9683 132.441 33.4387 132.815 33.824C133.2 34.198 133.727 34.385 134.396 34.385C134.974 34.385 135.433 34.249 135.773 33.977C136.113 33.6937 136.283 33.3197 136.283 32.855C136.283 32.3677 136.13 31.988 135.824 31.716C135.529 31.444 135.133 31.223 134.634 31.053C134.135 30.883 133.603 30.7017 133.036 30.509C132.118 30.1917 131.415 29.7837 130.928 29.285C130.452 28.7863 130.214 28.1233 130.214 27.296C130.203 26.5933 130.367 25.9927 130.707 25.494C131.058 24.984 131.534 24.593 132.135 24.321C132.736 24.0377 133.427 23.896 134.209 23.896C135.002 23.896 135.699 24.0377 136.3 24.321C136.912 24.6043 137.388 25.001 137.728 25.511C138.079 26.021 138.266 26.6273 138.289 27.33H135.96C135.949 26.9107 135.784 26.5423 135.467 26.225C135.161 25.8963 134.73 25.732 134.175 25.732C133.699 25.7207 133.297 25.8397 132.968 26.089C132.651 26.327 132.492 26.6783 132.492 27.143C132.492 27.5397 132.617 27.857 132.866 28.095C133.115 28.3217 133.455 28.5143 133.886 28.673C134.317 28.8317 134.81 29.0017 135.365 29.183C135.954 29.387 136.493 29.625 136.98 29.897C137.467 30.169 137.858 30.5317 138.153 30.985C138.448 31.427 138.595 31.9993 138.595 32.702C138.595 33.3253 138.436 33.9033 138.119 34.436C137.802 34.9687 137.331 35.3993 136.708 35.728C136.085 36.0453 135.32 36.204 134.413 36.204ZM143.668 36C142.784 36 142.076 35.7847 141.543 35.354C141.01 34.9233 140.744 34.1583 140.744 33.059V29.387H139.299V27.568H140.744L140.999 25.307H142.92V27.568H145.198V29.387H142.92V33.076C142.92 33.484 143.005 33.7673 143.175 33.926C143.356 34.0733 143.662 34.147 144.093 34.147H145.147V36H143.668ZM149.442 36.204C148.717 36.204 148.122 36.0907 147.657 35.864C147.192 35.626 146.847 35.3143 146.62 34.929C146.393 34.5437 146.28 34.1187 146.28 33.654C146.28 32.872 146.586 32.2373 147.198 31.75C147.81 31.2627 148.728 31.019 149.952 31.019H152.094V30.815C152.094 30.237 151.93 29.812 151.601 29.54C151.272 29.268 150.864 29.132 150.377 29.132C149.935 29.132 149.55 29.2397 149.221 29.455C148.892 29.659 148.688 29.965 148.609 30.373H146.484C146.541 29.761 146.745 29.2283 147.096 28.775C147.459 28.3217 147.923 27.976 148.49 27.738C149.057 27.4887 149.691 27.364 150.394 27.364C151.595 27.364 152.542 27.6643 153.233 28.265C153.924 28.8657 154.27 29.7157 154.27 30.815V36H152.417L152.213 34.64C151.964 35.0933 151.612 35.4673 151.159 35.762C150.717 36.0567 150.145 36.204 149.442 36.204ZM149.935 34.504C150.558 34.504 151.04 34.3 151.38 33.892C151.731 33.484 151.952 32.9797 152.043 32.379H150.19C149.612 32.379 149.198 32.4867 148.949 32.702C148.7 32.906 148.575 33.161 148.575 33.467C148.575 33.7957 148.7 34.0507 148.949 34.232C149.198 34.4133 149.527 34.504 149.935 34.504ZM155.815 36V27.568H157.753L157.957 29.149C158.263 28.605 158.677 28.1743 159.198 27.857C159.731 27.5283 160.354 27.364 161.068 27.364V29.659H160.456C159.98 29.659 159.555 29.7327 159.181 29.88C158.807 30.0273 158.512 30.2823 158.297 30.645C158.093 31.0077 157.991 31.512 157.991 32.158V36H155.815ZM165.781 36C164.897 36 164.188 35.7847 163.656 35.354C163.123 34.9233 162.857 34.1583 162.857 33.059V29.387H161.412V27.568H162.857L163.112 25.307H165.033V27.568H167.311V29.387H165.033V33.076C165.033 33.484 165.118 33.7673 165.288 33.926C165.469 34.0733 165.775 34.147 166.206 34.147H167.26V36H165.781ZM172.529 36.204C171.679 36.204 170.925 36.0227 170.268 35.66C169.61 35.2973 169.095 34.7873 168.721 34.13C168.347 33.4727 168.16 32.7133 168.16 31.852C168.16 30.9793 168.341 30.203 168.704 29.523C169.078 28.843 169.588 28.316 170.234 27.942C170.891 27.5567 171.662 27.364 172.546 27.364C173.373 27.364 174.104 27.5453 174.739 27.908C175.373 28.2707 175.866 28.7693 176.218 29.404C176.58 30.0273 176.762 30.7243 176.762 31.495C176.762 31.6197 176.756 31.75 176.745 31.886C176.745 32.022 176.739 32.1637 176.728 32.311H170.319C170.364 32.9683 170.591 33.484 170.999 33.858C171.418 34.232 171.922 34.419 172.512 34.419C172.954 34.419 173.322 34.3227 173.617 34.13C173.923 33.926 174.149 33.6653 174.297 33.348H176.507C176.348 33.8807 176.082 34.368 175.708 34.81C175.345 35.2407 174.892 35.5807 174.348 35.83C173.815 36.0793 173.209 36.204 172.529 36.204ZM172.546 29.132C172.013 29.132 171.543 29.285 171.135 29.591C170.727 29.8857 170.466 30.339 170.353 30.951H174.552C174.518 30.3957 174.314 29.9537 173.94 29.625C173.566 29.2963 173.101 29.132 172.546 29.132ZM181.936 36.204C181.143 36.204 180.435 36.0113 179.811 35.626C179.188 35.2407 178.695 34.7137 178.332 34.045C177.97 33.3763 177.788 32.617 177.788 31.767C177.788 30.917 177.97 30.1633 178.332 29.506C178.695 28.8373 179.188 28.316 179.811 27.942C180.435 27.5567 181.143 27.364 181.936 27.364C182.571 27.364 183.126 27.483 183.602 27.721C184.078 27.959 184.464 28.2933 184.758 28.724V23.76H186.934V36H184.996L184.758 34.793C184.486 35.167 184.124 35.4957 183.67 35.779C183.228 36.0623 182.65 36.204 181.936 36.204ZM182.395 34.3C183.098 34.3 183.67 34.0677 184.112 33.603C184.566 33.127 184.792 32.5207 184.792 31.784C184.792 31.0473 184.566 30.4467 184.112 29.982C183.67 29.506 183.098 29.268 182.395 29.268C181.704 29.268 181.132 29.5003 180.678 29.965C180.225 30.4297 179.998 31.0303 179.998 31.767C179.998 32.5037 180.225 33.11 180.678 33.586C181.132 34.062 181.704 34.3 182.395 34.3Z" fill="#5454D4"/>
</g>
<defs>
<clipPath id="clip0_1_6">
<rect width="285" height="60" fill="white"/>
</clipPath>
</defs>
</svg>
